<?xml version="1.0" standalone="no"?>
<!DOCTYPE svg PUBLIC "-//W3C//DTD SVG 20010904//EN"
 "http://www.w3.org/TR/2001/REC-SVG-20010904/DTD/svg10.dtd">
<svg version="1.0" xmlns="http://www.w3.org/2000/svg"
 width="1408.000000pt" height="768.000000pt" viewBox="0 0 1408.000000 768.000000"
 preserveAspectRatio="xMidYMid meet">

<g transform="translate(0.000000,768.000000) scale(0.100000,-0.100000)"
fill="#000000" stroke="none">
<path d="M0 3840 l0 -3840 7040 0 7040 0 0 3840 0 3840 -7040 0 -7040 0 0
-3840z m5730 3089 c457 -51 894 -257 1237 -583 l73 -68 70 66 c381 359 847
563 1360 595 518 32 1004 -113 1415 -422 103 -78 294 -269 372 -372 241 -320
382 -678 424 -1076 16 -153 6 -431 -20 -582 -77 -440 -258 -860 -559 -1302
-187 -275 -380 -504 -677 -800 -574 -574 -1259 -1082 -2059 -1530 -171 -95
-227 -115 -321 -115 -97 0 -147 17 -310 106 -1133 619 -2157 1483 -2732 2304
-577 823 -749 1642 -502 2384 142 428 429 807 799 1055 426 285 902 398 1430
340z m7815 -6186 c23 -60 96 -133 157 -158 27 -11 48 -23 48 -26 0 -4 -21 -14
-47 -24 -60 -23 -133 -96 -158 -157 -11 -27 -23 -48 -26 -48 -4 0 -14 21 -24
47 -23 60 -96 133 -157 158 -27 11 -48 23 -48 26 0 4 21 14 47 24 60 23 133
96 158 157 11 27 23 48 26 48 4 0 14 -21 24 -47z"/>
<path d="M5315 6690 c-450 -38 -871 -237 -1176 -557 -232 -245 -392 -553 -465
-898 -35 -162 -44 -472 -20 -646 67 -476 298 -977 684 -1478 398 -517 961
-1032 1657 -1518 263 -183 662 -428 904 -554 152 -79 155 -79 466 99 1068 610
2002 1413 2523 2170 231 336 409 712 491 1040 46 183 63 317 63 507 0 512
-179 952 -532 1306 -151 152 -284 247 -476 343 -512 256 -1145 255 -1669 -3
-266 -132 -483 -309 -692 -566 l-33 -40 -32 40 c-208 255 -430 437 -693 565
-222 109 -444 170 -689 190 -140 11 -176 11 -311 0z m833 -656 c139 -69 253
-228 334 -464 47 -140 106 -395 93 -408 -2 -2 -17 6 -34 17 -99 71 -330 155
-483 176 -60 8 -63 16 -63 195 0 141 13 204 56 276 27 45 25 92 -5 105 -47 22
-72 5 -111 -74 -53 -107 -68 -195 -62 -354 l5 -131 -89 -7 c-50 -4 -93 -5 -96
-1 -8 7 33 246 58 343 26 100 86 227 130 277 68 78 172 98 267 50z m1977 7
c22 -10 56 -35 74 -57 44 -50 104 -177 130 -277 25 -97 66 -336 58 -343 -3 -4
-46 -3 -95 1 l-89 7 5 129 c6 177 -18 297 -78 393 -24 38 -35 46 -59 46 -34 0
-61 -23 -61 -51 0 -11 11 -42 25 -69 43 -86 58 -170 52 -305 -3 -66 -8 -127
-12 -136 -4 -12 -33 -22 -98 -33 -153 -28 -346 -102 -440 -168 -16 -11 -30
-19 -32 -17 -6 6 22 159 44 247 12 45 39 132 60 193 116 329 340 520 516 440z
m-3574 -513 c88 -42 204 -132 295 -231 83 -91 191 -234 234 -310 37 -67 67
-86 105 -69 35 16 41 54 16 102 -12 22 -21 44 -21 49 0 8 111 58 195 89 289
106 658 111 911 13 233 -91 417 -255 518 -464 69 -142 69 -136 -8 -136 -84 1
-146 -27 -187 -84 -39 -54 -45 -81 -25 -112 22 -33 60 -33 91 1 14 15 25 31
25 35 0 13 57 39 86 39 15 0 43 -5 64 -11 34 -10 39 -17 71 -99 l35 -87 -101
1 c-84 1 -106 5 -135 23 -57 35 -153 62 -242 69 -118 9 -227 -14 -348 -73
-164 -80 -263 -200 -377 -453 -50 -111 -50 -138 1 -162 41 -18 68 9 111 111
55 132 120 238 184 301 174 170 439 207 636 89 l67 -41 60 12 c73 14 147 -4
195 -49 l33 -30 32 30 c51 46 118 62 199 48 l66 -12 48 33 c79 55 147 74 260
74 125 1 215 -26 312 -93 109 -75 189 -192 282 -413 23 -57 57 -77 96 -60 43
20 41 52 -8 162 -98 219 -181 331 -305 414 -81 54 -144 79 -245 100 -142 30
-267 13 -399 -51 -63 -32 -82 -37 -110 -31 -18 5 -59 5 -90 2 l-56 -6 38 94
38 93 50 9 c69 12 97 2 145 -49 43 -48 69 -55 99 -28 26 23 22 53 -13 106 -50
76 -141 116 -222 97 -38 -8 -39 -8 -33 18 4 15 29 72 56 127 131 263 390 448
714 510 107 21 333 21 451 0 120 -21 251 -59 358 -106 49 -20 91 -40 95 -43 3
-3 -5 -28 -18 -56 -19 -41 -21 -54 -12 -75 13 -28 52 -41 79 -26 11 5 37 39
57 74 97 166 298 391 424 476 142 95 261 123 373 86 152 -51 240 -251 211
-480 -7 -55 -33 -151 -71 -263 -49 -144 -62 -197 -71 -285 -6 -60 -20 -134
-32 -165 -56 -153 -184 -244 -373 -267 -33 -4 -67 -11 -76 -16 -25 -13 -33
-57 -14 -85 13 -20 24 -24 66 -24 l51 0 -7 -67 c-23 -247 -102 -435 -243 -585
-120 -127 -245 -200 -408 -239 -48 -11 -88 -18 -91 -15 -3 3 2 24 11 47 9 23
20 71 23 106 7 73 -10 103 -58 103 -40 0 -55 -21 -62 -89 -19 -181 -172 -286
-378 -260 -171 21 -345 149 -501 366 -116 162 -152 267 -126 367 l13 49 77 27
c158 55 223 146 165 230 -37 55 -70 73 -139 78 -36 2 -82 13 -108 25 -95 46
-182 20 -208 -61 -12 -35 -11 -49 2 -96 9 -29 33 -77 54 -105 l39 -51 -17 -78
c-10 -42 -21 -85 -25 -95 -10 -24 -149 -144 -235 -203 -82 -56 -135 -66 -192
-36 -38 20 -38 20 -75 0 -79 -41 -159 -5 -341 152 -85 73 -92 85 -113 196
l-11 61 36 53 c20 29 43 77 52 107 13 46 14 60 2 95 -7 23 -26 51 -41 62 -37
27 -109 28 -157 2 -19 -11 -68 -22 -108 -26 -76 -7 -108 -23 -144 -71 -66 -89
3 -188 169 -241 l72 -23 12 -54 c21 -102 -2 -176 -105 -331 -118 -176 -244
-293 -392 -362 -58 -27 -83 -33 -160 -36 -207 -9 -327 82 -352 266 -9 68 -20
82 -64 82 -33 0 -58 -32 -58 -75 0 -27 17 -103 35 -161 6 -21 5 -21 -52 -12
-84 13 -183 50 -266 99 -93 55 -231 192 -285 285 -73 123 -121 284 -136 452
l-6 62 50 0 c39 0 52 4 64 22 40 57 12 87 -96 104 -48 8 -112 23 -143 35 -78
29 -174 119 -208 196 -25 55 -31 85 -56 275 -6 45 -31 132 -60 210 -62 170
-75 229 -74 358 2 208 72 331 220 386 24 9 65 13 114 11 62 -3 90 -10 150 -39z
m-16 -1938 c48 -147 132 -276 256 -395 159 -152 327 -227 569 -255 71 -8 109
-19 151 -40 122 -64 268 -75 412 -30 60 19 74 20 130 9 34 -7 114 -12 177 -11
136 0 266 30 379 85 l71 35 0 -25 c0 -44 -40 -221 -66 -295 -36 -100 -117
-256 -172 -331 -48 -66 -150 -177 -162 -177 -4 0 -28 36 -53 79 -74 127 -215
265 -339 331 -53 27 -89 23 -106 -15 -18 -38 1 -67 71 -107 200 -115 343 -336
355 -544 4 -90 -10 -188 -29 -200 -21 -13 -513 357 -804 605 -403 345 -795
765 -1012 1086 l-41 61 23 60 c27 72 55 129 103 209 l36 60 16 -70 c9 -39 25
-95 35 -125z m5107 118 c50 -87 66 -121 94 -193 l23 -63 -82 -115 c-321 -451
-862 -976 -1467 -1423 -159 -118 -295 -214 -304 -214 -3 0 -13 25 -22 57 -12
40 -15 80 -12 142 11 206 131 399 326 528 95 62 112 78 112 105 0 26 -36 58
-64 58 -71 0 -318 -217 -386 -338 -58 -103 -55 -100 -81 -77 -12 11 -57 61
-99 112 -129 155 -229 374 -264 578 -24 136 -29 130 68 84 164 -76 377 -104
547 -70 60 11 70 11 127 -8 148 -50 320 -34 432 40 15 10 67 21 128 28 251 29
429 111 587 268 130 130 225 297 267 472 13 50 25 91 28 91 3 0 22 -28 42 -62z
m-3023 -291 c30 -27 81 -67 113 -90 32 -22 58 -46 58 -51 0 -24 -49 -89 -95
-128 -62 -51 -209 -122 -295 -142 -36 -9 -106 -16 -157 -16 l-92 0 51 48 c135
125 252 280 310 410 22 49 15 51 107 -31z m951 26 c42 -95 153 -248 254 -350
l101 -101 -35 -5 c-54 -7 -195 11 -262 34 -86 29 -187 81 -238 124 -46 38
-100 108 -100 130 0 7 19 25 42 41 23 16 81 62 127 102 47 39 86 72 88 72 1 0
11 -21 23 -47z m-924 -1090 c-14 -161 -63 -356 -113 -457 -33 -65 -107 -143
-165 -172 l-48 -24 1 22 c0 13 4 50 9 83 4 33 4 97 -1 142 l-9 83 77 72 c79
76 172 193 220 278 15 28 30 50 32 50 2 0 1 -35 -3 -77z m924 -128 c27 -34 81
-92 120 -129 l71 -67 -10 -83 c-9 -75 -2 -190 14 -233 6 -18 1 -17 -53 11 -65
33 -138 114 -173 192 -38 83 -74 220 -94 355 -24 170 -23 175 30 89 25 -40 68
-101 95 -135z"/>
<path d="M4300 5428 c-81 -41 -113 -116 -113 -263 0 -111 14 -177 64 -311 48
-128 66 -200 83 -337 11 -87 19 -117 43 -155 53 -87 156 -117 248 -72 51 25
80 74 90 155 6 51 12 64 44 95 21 19 53 44 72 55 19 11 44 39 57 65 21 40 23
55 19 140 -11 208 -140 443 -312 566 -119 85 -211 104 -295 62z"/>
<path d="M9592 5427 c-222 -93 -422 -404 -422 -656 0 -82 29 -147 79 -176 19
-11 51 -36 72 -56 33 -31 38 -43 45 -98 12 -108 66 -163 167 -169 78 -4 120
16 164 81 33 49 42 85 62 241 7 49 28 134 48 190 61 176 82 255 89 334 8 99
-15 210 -52 259 -54 71 -154 91 -252 50z"/>
<path d="M5479 4204 c-53 -10 -133 -67 -172 -125 -59 -86 -51 -149 19 -149 29
0 36 5 53 39 60 116 164 146 277 79 29 -17 40 -19 59 -10 14 6 27 23 31 37 15
59 -76 125 -179 130 -34 2 -74 1 -88 -1z"/>
<path d="M8448 4195 c-55 -18 -118 -73 -118 -104 0 -25 33 -61 56 -61 8 0 36
12 61 27 87 50 197 23 239 -59 25 -51 45 -68 75 -68 19 0 34 8 45 25 15 24 15
28 0 69 -53 138 -217 216 -358 171z"/>
<path d="M6833 3941 c-63 -39 -80 -118 -43 -198 23 -51 88 -123 181 -199 l69
-56 69 56 c179 147 238 261 181 353 -49 81 -182 83 -232 4 -12 -20 -14 -19
-50 16 -31 31 -45 37 -90 40 -41 3 -60 -1 -85 -16z"/>
</g>
</svg>
